# xmcd
#
# Track frame offsets: 
#        150
#        33626
#        56294
#        77153
#        87463
#        105025
#        120411
#        168308
#
# Disc length: 2554 seconds
#
# Revision: 2
# Processed by: cddbd v1.5.2PL0 Copyright (c) Steve Scherf et al.
# Submitted via: ExactAudioCopy v0.99pb4
#
DISCID=5409f808
DTITLE=Bo Diddley - Have Guitar Will Tour
DYEAR=2010
DGENRE=Rock
TTITLE0=Intro/Bo Diddley Vamp
TTITLE1=Doctor Jekyll
TTITLE2=Everleen
TTITLE3=Don't Know Where I've Been
TTITLE4=You Can't Judge A Book By The Cover
TTITLE5=Roadrunner
TTITLE6=I'm A Man
TTITLE7=Mona (I Need You Baby)
EXTD=
EXTT0=
EXTT1=
EXTT2=
EXTT3=
EXTT4=
EXTT5=
EXTT6=
EXTT7=
PLAYORDER=
